<?xml version="1.0" encoding="iso-8859-1"?>
<!-- Uploaded to: SVG Repo, www.svgrepo.com, Generator: SVG Repo Mixer Tools -->
<svg fill="#000000" height="800px" width="800px" version="1.1" id="Layer_1" xmlns="http://www.w3.org/2000/svg" xmlns:xlink="http://www.w3.org/1999/xlink" 
	 viewBox="0 0 512 512" xml:space="preserve">
<g>
	<g>
		<path d="M338.432,106.667h2.901c47.851,0,85.333-37.483,85.333-85.333C426.667,9.557,417.132,0,405.333,0H106.667
			C94.87,0,85.333,9.557,85.333,21.333c0,51.84,33.792,85.333,86.059,85.333h2.176c7.573,30.293,30.784,53.525,61.099,61.099
			v109.568c0,11.776,9.536,21.333,21.333,21.333c47.061,0,85.333,38.272,85.333,85.333c0,47.061-38.272,85.334-85.333,85.334
			c-47.061,0-85.333-38.272-85.333-85.333c0-11.776-9.536-21.333-21.333-21.333C137.536,362.667,128,372.224,128,384
			c0,70.592,57.408,128,128,128c70.571,0,128-57.408,128-128c0-63.317-46.208-116.032-106.667-126.229v-90.005
			C307.628,160.192,330.859,136.96,338.432,106.667z"/>
	</g>
</g>
</svg>